<svg width="51" height="50" viewBox="0 0 51 50" fill="none" xmlns="http://www.w3.org/2000/svg">
<path d="M25.3133 49.8522C38.9974 49.8522 50.0905 38.7591 50.0905 25.075C50.0905 11.391 38.9974 0.297852 25.3133 0.297852C11.6293 0.297852 0.536133 11.391 0.536133 25.075C0.536133 38.7591 11.6293 49.8522 25.3133 49.8522Z" fill="white"/>
<path d="M14.2867 16.8789H36.3516C36.6003 16.8789 36.8254 16.9263 37.0386 17.0092L25.9765 26.4013C25.5738 26.7448 25.0764 26.7448 24.6737 26.4013L13.5879 17.0092C13.8011 16.9263 14.038 16.8789 14.2748 16.8789H14.2867Z" fill="#136BFB"/>
<path d="M12.3916 31.388V18.7744C12.3916 18.6796 12.3916 18.5849 12.4153 18.502L20.2322 25.1226L12.5337 32.1341C12.439 31.9091 12.3916 31.6485 12.3916 31.388Z" fill="#136BFB"/>
<path d="M36.352 33.2714H14.287C14.287 33.2714 14.1686 33.2714 14.1094 33.2714L21.6894 26.3546L23.4541 27.8469C24.5319 28.7589 26.119 28.7589 27.1967 27.8469L28.9733 26.3428L36.5415 33.2714C36.4823 33.2714 36.4112 33.2714 36.352 33.2714Z" fill="#136BFB"/>
<path d="M38.2349 31.388C38.2349 31.6485 38.1875 31.9091 38.0927 32.1341L30.418 25.1108L38.223 18.502C38.2349 18.5967 38.2467 18.6796 38.2467 18.7744V31.388H38.2349Z" fill="#136BFB"/>
</svg>
