<svg width="36" height="36" viewBox="0 0 36 36" fill="none" xmlns="http://www.w3.org/2000/svg">
<path d="M18.02 36.0079C27.9501 36.0079 36 27.9579 36 18.0279C36 8.09777 27.9501 0.0478516 18.02 0.0478516C8.08996 0.0478516 0.0400391 8.09777 0.0400391 18.0279C0.0400391 27.9579 8.08996 36.0079 18.02 36.0079Z" fill="#D6D6D6"/>
<path d="M25.1598 11.438C25.6598 11.498 25.9998 11.988 25.7898 12.828L23.0498 25.738C22.9298 26.308 22.6698 26.608 22.2998 26.648C22.6798 26.618 22.9598 26.328 23.0798 25.738L25.8198 12.828C26.0298 11.968 25.6698 11.478 25.1598 11.438Z" fill="white"/>
<path d="M17.3996 23.3679C17.3996 23.3679 17.3996 23.3679 17.3896 23.3779L21.5396 26.4379C21.8296 26.5979 22.0896 26.6679 22.3096 26.6379C22.0996 26.6579 21.8496 26.5879 21.5796 26.4379L17.4096 23.3579L17.3996 23.3679Z" fill="white"/>
<path d="M8.57988 17.7378L24.6599 11.5278C24.8299 11.4478 25.0099 11.4178 25.1599 11.4278C24.9899 11.4078 24.8099 11.4378 24.6199 11.5278L8.53988 17.7378C7.43988 18.1878 7.44988 18.7978 8.34988 19.0578L12.4799 20.3478H12.4899L8.37988 19.0578C7.48988 18.7978 7.47988 18.1778 8.56988 17.7378H8.57988Z" fill="white"/>
<path d="M23.0499 25.7379L25.7899 12.8279C25.9999 11.9879 25.6499 11.4979 25.1599 11.4379C24.9999 11.4279 24.8299 11.4579 24.6599 11.5379L8.57992 17.7479C7.47992 18.1979 7.48992 18.8079 8.38992 19.0679L12.4999 20.3579L22.0499 14.3379C22.4999 14.0579 22.9099 14.2079 22.5799 14.5179L14.8199 21.4879L17.3999 23.3879C17.3999 23.3879 17.3999 23.3879 17.4099 23.3779L21.5799 26.4579C21.8499 26.6079 22.0999 26.6779 22.3099 26.6579C22.6799 26.6179 22.9399 26.3179 23.0599 25.7479L23.0499 25.7379Z" fill="white"/>
</svg>
