<svg width="50" height="50" viewBox="0 0 50 50" fill="none" xmlns="http://www.w3.org/2000/svg">
<path d="M25.1903 49.8522C38.8743 49.8522 49.9674 38.7591 49.9674 25.075C49.9674 11.391 38.8743 0.297852 25.1903 0.297852C11.5062 0.297852 0.413086 11.391 0.413086 25.075C0.413086 38.7591 11.5062 49.8522 25.1903 49.8522Z" fill="white"/>
<path d="M35.5419 14.0483C36.2644 14.1312 36.7618 14.8419 36.4539 16.0618L32.4744 34.7749C32.2967 35.604 31.9177 36.0304 31.3848 36.0896C31.9414 36.0541 32.3323 35.6277 32.5218 34.7749L36.5013 16.0618C36.8092 14.8182 36.2762 14.0957 35.5419 14.0483Z" fill="#136BFB"/>
<path d="M24.2893 31.3521C24.2893 31.3521 24.2775 31.3639 24.2656 31.3757L30.2823 35.8172C30.6968 36.0422 31.0758 36.1488 31.3956 36.1132C31.0876 36.1369 30.7323 36.0422 30.3296 35.8172L24.2775 31.3521H24.2893Z" fill="#136BFB"/>
<path d="M11.499 23.1917L34.8194 14.1905C35.0682 14.072 35.3169 14.0365 35.5538 14.0483C35.3169 14.0247 35.0445 14.0602 34.7721 14.1905L11.4517 23.1917C9.85276 23.8313 9.87645 24.7196 11.1674 25.1104L17.1604 26.9818H17.1722L11.2148 25.1104C9.92382 24.7314 9.90014 23.8432 11.499 23.1917Z" fill="#136BFB"/>
<path d="M32.4857 34.7869L36.4652 16.0737C36.7613 14.8538 36.2639 14.1432 35.5533 14.0603C35.3282 14.0484 35.0795 14.0839 34.8189 14.2024L11.4985 23.2037C9.89964 23.8432 9.92332 24.7315 11.2143 25.1223L17.1717 26.9937L31.0171 18.2648C31.6685 17.8621 32.2725 18.0871 31.7869 18.5254L20.5353 28.6281L24.278 31.3877C24.278 31.3877 24.2898 31.3759 24.3017 31.364L30.3538 35.8291C30.7565 36.0423 31.1118 36.1371 31.4198 36.1252C31.9527 36.066 32.3317 35.6396 32.5094 34.8106L32.4857 34.7869Z" fill="#136BFB"/>
</svg>
