<svg width="36" height="36" viewBox="0 0 36 36" fill="none" xmlns="http://www.w3.org/2000/svg">
<path d="M17.9859 36.0079C27.9159 36.0079 35.9659 27.9579 35.9659 18.0279C35.9659 8.09777 27.9159 0.0478516 17.9859 0.0478516C8.05578 0.0478516 0.00585938 8.09777 0.00585938 18.0279C0.00585938 27.9579 8.05578 36.0079 17.9859 36.0079Z" fill="#D6D6D6"/>
<path fill-rule="evenodd" clip-rule="evenodd" d="M19.0657 24.6577C11.8957 24.6577 7.53572 19.6777 7.36572 11.4077H10.9957C11.1057 17.4877 13.8757 20.0577 15.9957 20.5877V11.4077H19.4757V16.6477C21.5157 16.4177 23.6557 14.0377 24.3757 11.4077H27.8057C27.2557 14.6477 24.9257 17.0277 23.2857 18.0177C24.9357 18.8177 27.5857 20.8977 28.6057 24.6577H24.8357C24.0357 22.1377 22.0957 20.1877 19.4757 19.9277V24.6577H19.0557H19.0657Z" fill="white"/>
</svg>
