<svg width="16" height="17" viewBox="0 0 16 17" fill="none" xmlns="http://www.w3.org/2000/svg">
<path d="M1.51143 1.02398L0.995246 1.54017C0.733595 1.80182 0.733595 2.22604 0.995246 2.48769L14.0626 15.555C14.3242 15.8167 14.7485 15.8167 15.0101 15.555L15.5263 15.0388C15.7879 14.7772 15.7879 14.353 15.5263 14.0913L2.45896 1.02398C2.19731 0.76233 1.77309 0.76233 1.51143 1.02398Z" fill="#ADADAD"/>
<path d="M14.0626 1.03105L0.995246 14.0984C0.733595 14.36 0.733595 14.7843 0.995246 15.0459L1.51143 15.5621C1.77309 15.8237 2.19731 15.8237 2.45896 15.5621L15.5263 2.49476C15.7879 2.23311 15.7879 1.80889 15.5263 1.54724L15.0101 1.03105C14.7485 0.769397 14.3242 0.769396 14.0626 1.03105Z" fill="#ADADAD"/>
</svg>
