<svg width="18" height="19" viewBox="0 0 18 19" fill="none" xmlns="http://www.w3.org/2000/svg">
<path d="M1.25049 9.84463C1.32049 9.88463 1.41049 9.92463 1.50049 9.92463H10.4305L10.2305 10.1246L9.95049 10.4046L9.67049 10.6846L9.39049 10.9646L9.11049 11.2446L8.83049 11.5246L8.55049 11.8046L8.27049 12.0846L7.99049 12.3646L7.75049 12.6046C7.75049 12.6046 7.73049 12.6346 7.72049 12.6446C7.65049 12.7246 7.61049 12.8246 7.61049 12.9246C7.61049 13.0246 7.63049 13.1146 7.69049 13.2046C7.71049 13.2346 7.73049 13.2746 7.75049 13.3046C7.94049 13.4946 8.26049 13.4946 8.45049 13.3046L8.55049 13.2046L8.83049 12.9246L9.11049 12.6446L9.39049 12.3646L9.67049 12.0846L9.95049 11.8046L10.2305 11.5246L10.5105 11.2446L10.7905 10.9646L11.0705 10.6846L11.3505 10.4046L11.6305 10.1246L11.9105 9.84463L11.9805 9.77463C12.0405 9.71463 12.0805 9.64463 12.1005 9.56463C12.1305 9.47463 12.1305 9.37463 12.1005 9.28463C12.0805 9.20463 12.0405 9.13463 11.9805 9.07463L11.9105 9.00463L11.6305 8.72463L11.3505 8.44463L11.0705 8.16463L10.7905 7.88463L10.5105 7.60463L10.2305 7.32463L9.95049 7.04463L9.67049 6.76463L9.39049 6.48463L9.11049 6.20463L8.83049 5.92463L8.55049 5.64463L8.45049 5.54463C8.26049 5.35463 7.94049 5.35463 7.75049 5.54463C7.72049 5.57463 7.71049 5.60463 7.69049 5.64463C7.64049 5.73463 7.61049 5.82463 7.61049 5.92463C7.61049 6.02463 7.65049 6.12463 7.72049 6.20463C7.73049 6.21463 7.74049 6.23463 7.75049 6.24463L7.99049 6.48463L8.27049 6.76463L8.55049 7.04463L8.83049 7.32463L9.11049 7.60463L9.39049 7.88463L9.67049 8.16463L9.95049 8.44463L10.2305 8.72463L10.4405 8.93463H1.50049C1.41049 8.93463 1.33049 8.96463 1.25049 9.01463C1.14049 9.07463 1.06049 9.17463 1.03049 9.29463C1.02049 9.34463 1.00049 9.38463 1.00049 9.43463C1.00049 9.48463 1.01049 9.52463 1.03049 9.57463C1.07049 9.69463 1.14049 9.79463 1.25049 9.85463V9.84463Z" fill="#136BFB" stroke="#136BFB" stroke-width="0.53" stroke-miterlimit="10"/>
<path d="M8.99086 0.994636C8.93086 1.07464 8.88086 1.17464 8.88086 1.28464C8.88086 1.37464 8.91086 1.46464 8.96086 1.53464C9.05086 1.67464 9.20086 1.78464 9.38086 1.78464H15.8309V2.08464V2.62464V3.16464V3.70464V4.24464V4.78464V5.32464V5.86464V6.40464V6.94464V7.48464V8.02464V8.56464V9.10464V9.64464V10.1846V10.7246V11.2646V11.8046V12.3446V12.8846V13.4246V13.9646V14.5046V15.0446V15.5846V16.1246V16.6646V16.9646H9.38086C9.20086 16.9646 9.05086 17.0646 8.96086 17.2146C8.92086 17.2946 8.88086 17.3746 8.88086 17.4646C8.88086 17.5746 8.92086 17.6746 8.99086 17.7546C9.08086 17.8746 9.22086 17.9546 9.38086 17.9546H15.7009C15.9309 17.9546 16.1309 17.8646 16.3109 17.7546C16.5109 17.6246 16.6709 17.4446 16.7509 17.2146C16.7909 17.0946 16.8309 16.9746 16.8309 16.8446V16.6746V16.1346V15.5946V15.0546V14.5146V13.9746V13.4346V12.8946V12.3546V11.8146V11.2746V10.7346V10.1946V9.65464V9.11464V8.57464V8.03464V7.49464V6.95464V6.41464V5.87464V5.33464V4.79464V4.25464V3.71464V3.17464V2.63464V2.09464V1.92464C16.8309 1.79464 16.8009 1.66464 16.7509 1.55464C16.6709 1.32464 16.5109 1.14464 16.3109 1.01464C16.1309 0.894636 15.9309 0.814636 15.7009 0.814636H9.38086C9.22086 0.814636 9.08086 0.894636 8.99086 1.01464V0.994636Z" fill="#136BFB" stroke="#136BFB" stroke-width="0.53" stroke-miterlimit="10"/>
</svg>
