<svg width="49" height="30" viewBox="0 0 49 30" fill="none" xmlns="http://www.w3.org/2000/svg">
<path d="M47.8293 0.20253H1.53827C0.891498 0.20253 0.367188 0.726841 0.367188 1.37361V2.19242C0.367188 2.83919 0.891498 3.3635 1.53827 3.3635H47.8293C48.4761 3.3635 49.0004 2.83919 49.0004 2.19242V1.37361C49.0004 0.726841 48.4761 0.20253 47.8293 0.20253Z" fill="#ADADAD"/>
<path d="M47.8293 13.1321H1.53827C0.891498 13.1321 0.367188 13.6564 0.367188 14.3031V15.122C0.367188 15.7687 0.891498 16.293 1.53827 16.293H47.8293C48.4761 16.293 49.0004 15.7687 49.0004 15.122V14.3031C49.0004 13.6564 48.4761 13.1321 47.8293 13.1321Z" fill="#ADADAD"/>
<path d="M47.8293 26.0615H1.53827C0.891498 26.0615 0.367188 26.5858 0.367188 27.2326V28.0514C0.367188 28.6982 0.891498 29.2225 1.53827 29.2225H47.8293C48.4761 29.2225 49.0004 28.6982 49.0004 28.0514V27.2326C49.0004 26.5858 48.4761 26.0615 47.8293 26.0615Z" fill="#ADADAD"/>
</svg>
