<svg width="44" height="47" viewBox="0 0 44 47" fill="none" xmlns="http://www.w3.org/2000/svg">
<path d="M7.62994 0.0682373L40.4499 7.25824H43.9999V46.0982H6.77994C5.48994 46.0982 4.43994 45.0482 4.43994 43.7582V33.9682L7.55994 0.178237L7.62994 0.0782373V0.0682373Z" fill="#11408E"/>
<path d="M7.62988 0.0682373H38.4699C39.7599 0.0682373 40.8099 1.11824 40.8099 2.40824V32.4382H7.62988V0.0682373Z" fill="#2170FA"/>
<path d="M0.620117 36.6682L7.63012 32.4382V0.0682373L0.620117 4.29824V36.6682Z" fill="#699BE3"/>
<path d="M21.1901 41.4082V42.4282C21.0201 42.5282 20.7701 42.5782 20.5101 42.5782C19.9201 42.5782 19.4501 42.4082 19.0801 41.6382L18.2601 39.9882H17.5101V42.4382H15.8101V35.6382H18.3801C19.8601 35.6382 20.8501 36.3482 20.8501 37.4882V38.0982C20.8501 38.7682 20.4301 39.2882 19.7701 39.6182L20.5301 41.0482C20.6601 41.2982 20.8201 41.4182 21.1001 41.4182H21.1801L21.1901 41.4082ZM17.5101 38.8582H18.2501C18.7901 38.8582 19.1501 38.5782 19.1501 38.0482V37.5582C19.1501 37.0482 18.7801 36.7782 18.2501 36.7782H17.5101V38.8482V38.8582Z" fill="white"/>
<path d="M21.4302 35.6282H23.1902L24.6002 41.0982L25.8802 35.6282H27.6002L25.7102 42.4282H23.4502L21.4402 35.6282H21.4302Z" fill="white"/>
<path d="M33.3899 36.8482H31.6099V42.4182H29.9099V36.8482H28.1099V35.6282H33.3799V36.8482H33.3899Z" fill="white"/>
<path d="M31.95 22.5582V25.2482C31.49 25.5082 30.85 25.6282 30.16 25.6282C28.6 25.6282 27.37 25.1682 26.39 23.1382L24.24 18.7782H22.27V25.2382H17.79V7.30824H24.58C28.48 7.30824 31.09 9.17824 31.09 12.1782V13.7882C31.09 15.5582 29.99 16.9382 28.25 17.8082L30.25 21.5782C30.58 22.2482 31.02 22.5482 31.76 22.5482H31.96L31.95 22.5582ZM22.26 15.8482H24.21C25.65 15.8482 26.59 15.1082 26.59 13.7182V12.4382C26.59 11.0782 25.62 10.3882 24.21 10.3882H22.26V15.8482Z" fill="white"/>
</svg>
