<svg width="193" height="192" viewBox="0 0 193 192" fill="none" xmlns="http://www.w3.org/2000/svg">
<rect x="0.455078" y="0.272339" width="191.69" height="191.69" rx="20" fill="url(#paint0_linear_7209_2)"/>
<path d="M96.3005 131.937C116.083 131.937 132.12 115.9 132.12 96.1175C132.12 76.3346 116.083 60.2975 96.3005 60.2975C76.5176 60.2975 60.4805 76.3346 60.4805 96.1175C60.4805 115.9 76.5176 131.937 96.3005 131.937Z" fill="url(#paint1_linear_7209_2)"/>
<path d="M113.021 94.2575C110.531 93.7675 108.661 91.5775 108.661 88.9475C108.661 88.0275 108.891 87.1675 109.301 86.4075C109.481 86.0675 109.481 85.6575 109.231 85.3675C108.631 84.6475 107.981 83.9775 107.271 83.3675C106.981 83.1175 106.581 83.1175 106.241 83.2775C104.211 84.3075 101.671 83.9675 99.9707 82.2775C99.1707 81.4775 98.6707 80.4875 98.4807 79.4475C97.7607 79.3575 97.0407 79.2875 96.3007 79.2875C95.6607 79.2875 95.0307 79.3275 94.4207 79.3975C93.9107 81.8575 91.7307 83.6975 89.1207 83.6975C88.2207 83.6975 87.3707 83.4775 86.6207 83.0875C86.2907 82.9075 85.8807 82.9175 85.5907 83.1575C84.8607 83.7575 84.1807 84.4175 83.5607 85.1375C83.3207 85.4175 83.3107 85.8175 83.4707 86.1475C84.4707 88.1675 84.1307 90.6875 82.4507 92.3775C81.6507 93.1775 80.6707 93.6675 79.6407 93.8675C79.5407 94.6075 79.4707 95.3475 79.4707 96.1075C79.4707 96.7275 79.5107 97.3375 79.5707 97.9375C82.0207 98.4475 83.8707 100.627 83.8707 103.227C83.8707 104.137 83.6407 104.987 83.2507 105.747C83.0707 106.077 83.0807 106.487 83.3107 106.777C83.9007 107.497 84.5507 108.177 85.2607 108.797C85.5407 109.047 85.9507 109.057 86.2907 108.887C88.3207 107.867 90.8607 108.207 92.5507 109.897C93.3607 110.707 93.8507 111.717 94.0407 112.767C94.7807 112.867 95.5307 112.937 96.2907 112.937C96.9007 112.937 97.5007 112.897 98.0907 112.837C98.5807 110.357 100.771 108.477 103.401 108.477C104.331 108.477 105.201 108.717 105.961 109.127C106.301 109.307 106.711 109.307 107.001 109.067C107.721 108.477 108.391 107.827 109.001 107.127C109.251 106.837 109.261 106.427 109.081 106.087C108.041 104.057 108.361 101.497 110.071 99.7975C110.891 98.9775 111.901 98.4875 112.961 98.2975C113.051 97.5775 113.121 96.8475 113.121 96.1075C113.121 95.4775 113.081 94.8575 113.011 94.2475L113.021 94.2575ZM96.3007 104.377C91.7407 104.377 88.0407 100.677 88.0407 96.1175C88.0407 91.5575 91.7407 87.8575 96.3007 87.8575C100.861 87.8575 104.561 91.5575 104.561 96.1175C104.561 100.677 100.861 104.377 96.3007 104.377Z" fill="#F7F7F7"/>
<defs>
<linearGradient id="paint0_linear_7209_2" x1="96.3002" y1="178.183" x2="96.3002" y2="14.4584" gradientUnits="userSpaceOnUse">
<stop stop-color="#5D96FA"/>
<stop offset="1" stop-color="#E5EEFD"/>
</linearGradient>
<linearGradient id="paint1_linear_7209_2" x1="96.3005" y1="60.2975" x2="96.3005" y2="131.937" gradientUnits="userSpaceOnUse">
<stop stop-color="#105BD6"/>
<stop offset="1" stop-color="#4D8AE9"/>
</linearGradient>
</defs>
</svg>
