<svg width="92" height="22" viewBox="0 0 92 22" fill="none" xmlns="http://www.w3.org/2000/svg">
<path d="M22.008 0.050354C22.108 0.200354 22.098 0.380354 22.098 0.550354C22.098 3.71035 22.098 6.86035 22.098 10.0204C22.098 10.4004 21.988 10.4804 21.618 10.4804C17.978 10.4704 14.338 10.4704 10.688 10.4804C10.348 10.4804 10.228 10.4104 10.228 10.0404C10.248 7.44035 10.238 4.83035 10.228 2.23035C10.228 1.89035 10.328 1.78035 10.668 1.74035C14.268 1.23035 17.868 0.690354 21.468 0.160354C21.558 0.150354 21.668 0.170354 21.708 0.060354H21.998L22.008 0.050354Z" fill="#ADADAD"/>
<path d="M16.2183 11.5104C18.0383 11.5104 19.8583 11.5104 21.6783 11.5104C21.9983 11.5104 22.1083 11.5804 22.1083 11.9204C22.0983 15.1104 22.0983 18.3004 22.1083 21.4804C22.1083 21.8004 22.0683 21.9104 21.6983 21.8604C18.7583 21.4104 15.8183 20.9904 12.8783 20.5604C12.1283 20.4504 11.3783 20.3204 10.6283 20.2404C10.3383 20.2104 10.2583 20.1004 10.2583 19.8204C10.2783 17.1704 10.2883 14.5204 10.2783 11.8704C10.2783 11.5104 10.4483 11.5104 10.7083 11.5104C12.5483 11.5104 14.3783 11.5104 16.2183 11.5104Z" fill="#ADADAD"/>
<path d="M4.6882 10.4704C3.3082 10.4704 1.9382 10.4704 0.558203 10.4704C0.248203 10.4704 0.158203 10.3804 0.158203 10.0704C0.168203 7.89036 0.168203 5.72036 0.158203 3.54036C0.158203 3.26036 0.238203 3.17036 0.518203 3.13036C3.0282 2.80036 5.5282 2.46036 8.0382 2.12036C8.3082 2.08036 8.5782 2.07036 8.8382 2.01036C9.1382 1.95036 9.2182 2.06036 9.2182 2.35036C9.2082 3.67036 9.2182 5.00036 9.2182 6.32036C9.2182 7.57036 9.2082 8.81036 9.2182 10.0604C9.2182 10.3704 9.1282 10.4604 8.8182 10.4504C7.4382 10.4304 6.0682 10.4504 4.6882 10.4504V10.4704Z" fill="#ADADAD"/>
<path d="M4.68797 11.5104C6.06797 11.5104 7.43797 11.5104 8.81797 11.5104C9.12797 11.5104 9.21797 11.5904 9.21797 11.9004C9.20797 14.4504 9.19797 17.0104 9.21797 19.5604C9.21797 19.9604 9.05797 19.9904 8.73797 19.9404C6.51797 19.6304 4.28797 19.3404 2.06797 19.0404C1.51797 18.9704 0.977969 18.8804 0.427969 18.8204C0.227969 18.8004 0.167969 18.7104 0.167969 18.5204C0.167969 16.2804 0.167969 14.0404 0.167969 11.8004C0.167969 11.4704 0.357969 11.5004 0.567969 11.5004C1.94797 11.5004 3.31797 11.5004 4.69797 11.5004L4.68797 11.5104Z" fill="#ADADAD"/>
<path d="M36.5379 7.33035C35.7479 10.1204 35.0079 12.7004 34.2979 15.2804C34.1679 15.7604 33.9979 16.0104 33.4379 15.9804C32.9179 15.9504 32.5679 15.9304 32.3879 15.3004C31.4979 12.1204 30.5379 8.97035 29.6279 5.80035C29.5679 5.60035 29.1879 5.17035 29.6979 5.13035C30.1079 5.10035 30.7379 4.74035 30.9479 5.55035C31.4479 7.44035 31.9979 9.32035 32.5179 11.2104C32.7779 12.1604 33.0479 13.1004 33.3579 14.2204C34.1979 11.3104 34.9779 8.59035 35.7579 5.87035C35.8879 5.42035 35.9779 5.06035 36.6279 5.07035C37.2579 5.07035 37.2979 5.42035 37.4179 5.85035C38.1679 8.59035 38.9279 11.3304 39.7279 14.2204C40.3579 11.8504 40.9579 9.63035 41.5579 7.41035C41.6679 7.00035 41.7779 6.58035 41.8879 6.17035C42.0879 5.39702 42.6346 5.07035 43.5279 5.19035C42.8579 7.57035 42.1879 9.94035 41.5179 12.3104C41.2179 13.3704 40.8679 14.4104 40.6279 15.4804C40.4879 16.0704 40.1179 15.9904 39.7179 16.0004C39.3079 16.0004 38.9579 16.0304 38.8079 15.4704C38.1379 12.9604 37.4179 10.4604 36.7079 7.95035C36.6779 7.83035 36.6279 7.71035 36.5179 7.36035L36.5379 7.33035Z" fill="#ADADAD"/>
<path d="M80.1985 10.0903C79.6485 11.8403 79.0785 13.5703 78.5685 15.3103C78.4285 15.7703 78.2685 15.9703 77.7485 15.9703C77.2485 15.9703 77.0485 15.8003 76.9085 15.3403C76.2785 13.2003 75.6085 11.0804 74.9985 8.94035C74.9385 8.74035 74.4685 8.30035 75.0885 8.20035C75.5085 8.13035 76.0485 7.97035 76.2385 8.70035C76.6385 10.2903 77.0985 11.8603 77.5285 13.4303C77.5985 13.6903 77.6785 13.9403 77.7485 14.2003C78.0285 14.1503 77.9885 13.9303 78.0385 13.7603C78.5685 12.0703 79.1085 10.3804 79.6085 8.69035C79.7385 8.25035 79.9685 8.18035 80.3585 8.16035C80.8085 8.14035 80.9785 8.33035 81.0785 8.72035C81.5785 10.5803 82.0885 12.4503 82.6585 14.5303C82.9785 13.3803 83.2485 12.4303 83.5085 11.4704C83.7685 10.5103 84.0185 9.55035 84.2885 8.60035C84.3885 8.24035 85.1885 8.00035 85.4785 8.21035C85.6685 8.35035 85.5285 8.50035 85.4785 8.64035C84.7985 10.9303 84.0885 13.2103 83.4285 15.5003C83.2885 15.9803 82.9785 15.9403 82.6285 15.9503C82.2585 15.9503 81.9785 15.9503 81.8585 15.4703C81.4185 13.8403 80.9285 12.2204 80.4585 10.6004C80.4085 10.4204 80.3885 10.2303 80.1985 10.0803V10.0903Z" fill="#ADADAD"/>
<path d="M62.9581 9.15035C62.9581 7.76035 62.9581 6.53035 62.9581 5.30035C62.9581 4.85035 62.8381 4.41035 63.6081 4.43035C64.3081 4.44035 64.2281 4.83035 64.2281 5.26035C64.2281 8.56035 64.2281 11.8704 64.2281 15.1704C64.2281 15.6404 64.2281 15.9704 63.5781 15.9804C62.8781 15.9904 62.9381 15.6104 62.9581 15.1704C62.9581 15.0704 62.9581 14.9604 62.9381 14.7204C62.1281 15.7704 61.1281 16.2304 59.8881 16.1004C58.6681 15.9704 57.8381 15.3104 57.3981 14.2004C56.8481 12.7904 56.9081 11.3604 57.5081 9.97035C58.3481 8.02035 61.1781 7.17035 62.9681 9.15035H62.9581ZM62.9581 12.0404C62.9581 11.7404 62.9581 11.5204 62.9581 11.3104C62.9181 10.1604 62.2081 9.28035 61.2081 9.11035C60.0381 8.91035 59.0381 9.44035 58.6181 10.5304C58.2081 11.5904 58.1781 12.6804 58.6181 13.7404C58.9581 14.5404 59.5781 15.0204 60.4781 15.0704C61.4281 15.1204 62.1381 14.7304 62.6081 13.9004C62.9481 13.2904 62.9981 12.6304 62.9681 12.0404H62.9581Z" fill="#ADADAD"/>
<path d="M73.8285 12.0604C73.8285 14.8404 71.9385 16.4704 69.2185 16.0604C67.0685 15.7304 65.7985 13.6704 66.2485 11.2204C66.6385 9.07035 68.2985 7.82035 70.4885 8.01035C72.6485 8.20035 73.8385 9.64035 73.8285 12.0604ZM72.5485 12.3304C72.5485 10.3004 71.7985 9.23035 70.4585 9.10035C68.9185 8.94035 67.8485 9.73035 67.5385 11.2404C67.2485 12.6804 67.6985 14.1204 68.6785 14.7004C69.5285 15.2004 70.4385 15.2404 71.2985 14.7704C72.3685 14.1904 72.5285 13.1504 72.5385 12.3304H72.5485Z" fill="#ADADAD"/>
<path d="M50.0185 9.45035C50.8485 8.34035 51.8085 7.88035 52.9985 8.03035C54.2385 8.19035 55.0785 9.04035 55.1585 10.3704C55.2485 12.0904 55.1885 13.8104 55.2185 15.5304C55.2185 16.0004 54.9185 15.9504 54.6185 15.9504C54.2985 15.9504 53.9585 16.0104 53.9685 15.4904C53.9885 14.3604 53.9785 13.2304 53.9685 12.1004C53.9685 11.6404 53.9485 11.1904 53.8985 10.7304C53.8185 9.99035 53.5185 9.35035 52.7485 9.14035C51.9385 8.92035 51.1985 9.10035 50.6285 9.77035C50.1885 10.2904 50.0185 10.8904 50.0185 11.5604C50.0185 12.7704 50.0185 13.9804 50.0185 15.1904C50.0185 15.5804 50.1285 15.9904 49.4485 15.9704C48.8585 15.9604 48.7385 15.7504 48.7385 15.2104C48.7685 13.1104 48.7585 11.0204 48.7385 8.92035C48.7385 8.49035 48.7085 8.16035 49.3385 8.15035C49.9585 8.15035 50.0785 8.40035 50.0085 8.91035C49.9985 9.02035 50.0085 9.12035 50.0085 9.44035L50.0185 9.45035Z" fill="#ADADAD"/>
<path d="M91.4186 9.57035C90.6486 9.24035 89.9286 9.01035 89.1686 9.09035C88.5686 9.16035 88.0386 9.36035 87.9186 10.0304C87.8086 10.6704 88.2186 11.0204 88.7586 11.2504C89.3486 11.5104 89.9586 11.7404 90.5286 12.0304C91.3386 12.4404 91.8386 13.0804 91.7586 14.0304C91.6786 14.9604 91.1086 15.5404 90.2586 15.8604C89.4586 16.1604 88.6286 16.1904 87.7886 16.0504C86.5686 15.8504 86.4986 15.7604 86.6786 14.4304C87.4786 14.8704 88.3086 15.1704 89.2286 15.0604C89.7886 14.9904 90.3186 14.8404 90.4486 14.2004C90.5786 13.5604 90.1886 13.1904 89.6686 12.9404C89.0586 12.6504 88.4286 12.4204 87.8286 12.1204C87.0486 11.7304 86.5686 11.1204 86.6186 10.2004C86.6586 9.29035 87.1986 8.71035 87.9786 8.36035C88.9486 7.92035 89.9686 7.92035 90.9786 8.23035C91.7386 8.46035 91.2986 9.06035 91.4186 9.59035V9.57035Z" fill="#ADADAD"/>
<path d="M44.998 12.0904C44.998 10.9604 45.018 9.84035 44.988 8.72035C44.968 8.19035 45.258 8.19035 45.638 8.18035C46.038 8.18035 46.288 8.21035 46.278 8.73035C46.258 10.9504 46.248 13.1804 46.278 15.4004C46.278 15.9804 45.988 15.9604 45.578 15.9804C45.128 16.0004 44.968 15.8604 44.978 15.3904C45.008 14.2904 44.988 13.1904 44.988 12.1004L44.998 12.0904Z" fill="#ADADAD"/>
<path d="M46.4578 5.40036C46.4178 5.90036 46.1678 6.20036 45.6478 6.20036C45.1678 6.20036 44.8778 5.93036 44.8478 5.47036C44.8178 4.97036 45.1178 4.64036 45.6078 4.62036C46.0978 4.60036 46.3978 4.89036 46.4578 5.40036Z" fill="#ADADAD"/>
</svg>
