<svg width="19" height="19" viewBox="0 0 19 19" fill="none" xmlns="http://www.w3.org/2000/svg">
<path d="M9.80156 18.2762C14.8227 18.2762 18.8932 14.2058 18.8932 9.18462C18.8932 4.16346 14.8227 0.0930176 9.80156 0.0930176C4.78041 0.0930176 0.709961 4.16346 0.709961 9.18462C0.709961 14.2058 4.78041 18.2762 9.80156 18.2762Z" fill="white"/>
<mask id="mask0_5212_7688" style="mask-type:luminance" maskUnits="userSpaceOnUse" x="1" y="0" width="18" height="18">
<path d="M9.80178 17.5049C14.397 17.5049 18.1221 13.7798 18.1221 9.18459C18.1221 4.5894 14.397 0.864258 9.80178 0.864258C5.20658 0.864258 1.48145 4.5894 1.48145 9.18459C1.48145 13.7798 5.20658 17.5049 9.80178 17.5049Z" fill="white"/>
</mask>
<g mask="url(#mask0_5212_7688)">
<path d="M21.8467 -0.15625H-1.37695V5.99051H21.8467V-0.15625Z" fill="#0F0F0F"/>
<path d="M21.8467 5.99023H-1.37695V12.137H21.8467V5.99023Z" fill="#CB0200"/>
<path d="M21.8467 12.1372H-1.37695V18.284H21.8467V12.1372Z" fill="#FDA700"/>
</g>
</svg>
