<svg width="20" height="19" viewBox="0 0 20 19" fill="none" xmlns="http://www.w3.org/2000/svg">
<path d="M9.94218 18.2762C14.9633 18.2762 19.0338 14.2058 19.0338 9.18462C19.0338 4.16346 14.9633 0.0930176 9.94218 0.0930176C4.92103 0.0930176 0.850586 4.16346 0.850586 9.18462C0.850586 14.2058 4.92103 18.2762 9.94218 18.2762Z" fill="white"/>
<mask id="mask0_5212_7707" style="mask-type:luminance" maskUnits="userSpaceOnUse" x="1" y="0" width="18" height="18">
<path d="M9.94143 17.5049C14.5366 17.5049 18.2618 13.7798 18.2618 9.18459C18.2618 4.5894 14.5366 0.864258 9.94143 0.864258C5.34623 0.864258 1.62109 4.5894 1.62109 9.18459C1.62109 13.7798 5.34623 17.5049 9.94143 17.5049Z" fill="white"/>
</mask>
<g mask="url(#mask0_5212_7707)">
<path d="M21.9854 -0.15625H-1.23828V5.99051H21.9854V-0.15625Z" fill="#EB0000"/>
<path d="M21.9854 5.99023H-1.23828V12.137H21.9854V5.99023Z" fill="white"/>
<path d="M21.9854 12.1372H-1.23828V18.284H21.9854V12.1372Z" fill="#EB0000"/>
</g>
</svg>
