<svg width="20" height="19" viewBox="0 0 20 19" fill="none" xmlns="http://www.w3.org/2000/svg">
<path d="M10.0271 18.2762C15.0483 18.2762 19.1187 14.2058 19.1187 9.18462C19.1187 4.16346 15.0483 0.0930176 10.0271 0.0930176C5.00599 0.0930176 0.935547 4.16346 0.935547 9.18462C0.935547 14.2058 5.00599 18.2762 10.0271 18.2762Z" fill="white"/>
<mask id="mask0_5212_7697" style="mask-type:luminance" maskUnits="userSpaceOnUse" x="1" y="0" width="18" height="18">
<path d="M10.0283 17.5049C14.6235 17.5049 18.3487 13.7798 18.3487 9.18459C18.3487 4.5894 14.6235 0.864258 10.0283 0.864258C5.43315 0.864258 1.70801 4.5894 1.70801 9.18459C1.70801 13.7798 5.43315 17.5049 10.0283 17.5049Z" fill="white"/>
</mask>
<g mask="url(#mask0_5212_7697)">
<path d="M23.007 6.302H-2.94336V12.067H23.007V6.302Z" fill="white"/>
<path d="M23.007 12.0984H-2.94336V17.8634H23.007V12.0984Z" fill="#194EAD"/>
<path d="M23.007 0.537109H-2.94336V6.30213H23.007V0.537109Z" fill="#EB0000"/>
</g>
</svg>
