<svg width="19" height="19" viewBox="0 0 19 19" fill="none" xmlns="http://www.w3.org/2000/svg">
<path d="M9.57207 18.3643C14.5932 18.3643 18.6637 14.2939 18.6637 9.27275C18.6637 4.2516 14.5932 0.181152 9.57207 0.181152C4.55091 0.181152 0.480469 4.2516 0.480469 9.27275C0.480469 14.2939 4.55091 18.3643 9.57207 18.3643Z" fill="white"/>
<mask id="mask0_5212_7673" style="mask-type:luminance" maskUnits="userSpaceOnUse" x="1" y="0" width="17" height="18">
<path d="M9.57521 17.5931C14.1704 17.5931 17.8955 13.8679 17.8955 9.27272C17.8955 4.67753 14.1704 0.952393 9.57521 0.952393C4.98002 0.952393 1.25488 4.67753 1.25488 9.27272C1.25488 13.8679 4.98002 17.5931 9.57521 17.5931Z" fill="white"/>
</mask>
<g mask="url(#mask0_5212_7673)">
<path d="M32.1046 -2.05493H-10.5254V9.37384H32.1046V-2.05493Z" fill="white"/>
<path d="M32.1046 8.87524H-10.5254V20.304H32.1046V8.87524Z" fill="#D90037"/>
</g>
</svg>
