<svg width="19" height="19" viewBox="0 0 19 19" fill="none" xmlns="http://www.w3.org/2000/svg">
<path d="M9.52812 18.7064C14.5493 18.7064 18.6197 14.6359 18.6197 9.61479C18.6197 4.59364 14.5493 0.523193 9.52812 0.523193C4.50697 0.523193 0.436523 4.59364 0.436523 9.61479C0.436523 14.6359 4.50697 18.7064 9.52812 18.7064Z" fill="white"/>
<mask id="mask0_5212_7603" style="mask-type:luminance" maskUnits="userSpaceOnUse" x="1" y="1" width="17" height="17">
<path d="M9.52834 17.9351C14.1235 17.9351 17.8487 14.21 17.8487 9.61477C17.8487 5.01957 14.1235 1.29443 9.52834 1.29443C4.93315 1.29443 1.20801 5.01957 1.20801 9.61477C1.20801 14.21 4.93315 17.9351 9.52834 17.9351Z" fill="white"/>
</mask>
<g mask="url(#mask0_5212_7603)">
<path d="M22.507 0.998535H-3.44336V6.76356H22.507V0.998535Z" fill="white"/>
<path d="M22.507 6.76343H-3.44336V12.5285H22.507V6.76343Z" fill="#194EAD"/>
<path d="M22.507 12.5286H-3.44336V18.2936H22.507V12.5286Z" fill="#EB0000"/>
</g>
</svg>
