<svg width="19" height="19" viewBox="0 0 19 19" fill="none" xmlns="http://www.w3.org/2000/svg">
<path d="M9.50957 18.3643C14.5307 18.3643 18.6012 14.2939 18.6012 9.27275C18.6012 4.2516 14.5307 0.181152 9.50957 0.181152C4.48842 0.181152 0.417969 4.2516 0.417969 9.27275C0.417969 14.2939 4.48842 18.3643 9.50957 18.3643Z" fill="white"/>
<mask id="mask0_5212_7662" style="mask-type:luminance" maskUnits="userSpaceOnUse" x="1" y="0" width="17" height="18">
<path d="M9.50881 17.5931C14.104 17.5931 17.8291 13.8679 17.8291 9.27272C17.8291 4.67753 14.104 0.952393 9.50881 0.952393C4.91362 0.952393 1.18848 4.67753 1.18848 9.27272C1.18848 13.8679 4.91362 17.5931 9.50881 17.5931Z" fill="white"/>
</mask>
<g mask="url(#mask0_5212_7662)">
<path d="M20.7404 -1.12769H0.671875V5.20605H20.7404V-1.12769Z" fill="#017934"/>
<path d="M25.5929 5.06592H5.52441V11.3997H25.5929V5.06592Z" fill="white"/>
<path d="M25.5929 11.2593H5.52441V17.593H25.5929V11.2593Z" fill="#141414"/>
<path d="M5.52453 -1.12769H-1.7207V17.5931H5.52453V-1.12769Z" fill="#FD1733"/>
</g>
</svg>
