<svg width="26" height="26" viewBox="0 0 26 26" fill="none" xmlns="http://www.w3.org/2000/svg">
<path d="M19.4771 0.522339H7.01713C3.44937 0.522339 0.557129 3.41458 0.557129 6.98234V19.4423C0.557129 23.0101 3.44937 25.9023 7.01713 25.9023H19.4771C23.0449 25.9023 25.9371 23.0101 25.9371 19.4423V6.98234C25.9371 3.41458 23.0449 0.522339 19.4771 0.522339Z" fill="#157AFA"/>
<path fill-rule="evenodd" clip-rule="evenodd" d="M14.2172 19.1823C7.75725 19.1823 3.82725 14.7023 3.67725 7.24234H6.94725C7.04725 12.7123 9.53725 15.0323 11.4472 15.5123V7.24234H14.5872V11.9623C16.4272 11.7623 18.3572 9.61234 19.0072 7.24234H22.0972C21.6072 10.1623 19.5072 12.3023 18.0172 13.1923C19.4972 13.9123 21.8872 15.7823 22.8072 19.1823H19.4172C18.6972 16.9123 16.9472 15.1623 14.5872 14.9223V19.1823H14.2172Z" fill="white"/>
</svg>
