<svg width="29" height="29" viewBox="0 0 29 29" fill="none" xmlns="http://www.w3.org/2000/svg">
<path d="M14.3221 0.0323486C22.1521 0.0323486 28.5021 6.38235 28.5021 14.2123C28.5021 22.0423 22.1521 28.3923 14.3221 28.3923C6.49209 28.3823 0.14209 22.0423 0.14209 14.2123C0.14209 6.38235 6.49209 0.0323486 14.3221 0.0323486Z" fill="white"/>
<path d="M14.3218 0.25235C22.0318 0.25235 28.2818 6.50235 28.2818 14.2123C28.2818 21.9223 22.0318 28.1723 14.3218 28.1723C6.61182 28.1623 0.361816 21.9123 0.361816 14.2123C0.361816 6.50235 6.61182 0.25235 14.3218 0.25235Z" stroke="#ADADAD" stroke-width="0.2"/>
<path fill-rule="evenodd" clip-rule="evenodd" d="M23.5722 8.64235C23.5322 8.53235 23.4622 8.40235 23.3622 8.26235C23.1722 7.97235 22.8922 7.62235 22.5822 7.29235C22.2422 6.95235 21.9022 6.66235 21.6222 6.47235C21.4822 6.37235 21.3522 6.30235 21.2522 6.26235C21.2022 6.24235 21.1522 6.22235 21.0922 6.22235C21.0422 6.22235 20.9822 6.22235 20.9322 6.27235L14.4322 12.6024C14.3622 12.6724 14.2422 12.6724 14.1722 12.6024L7.67219 6.27235C7.67219 6.27235 7.56219 6.22235 7.51219 6.22235C7.46219 6.22235 7.41219 6.24235 7.35219 6.26235C7.25219 6.30235 7.12219 6.38235 6.98219 6.47235C6.70219 6.66235 6.36219 6.96235 6.02219 7.29235C5.71219 7.62235 5.42219 7.98235 5.24219 8.26235C5.15219 8.40235 5.07219 8.53235 5.03219 8.64235C5.01219 8.69235 5.00219 8.75235 4.99219 8.80235C4.99219 8.85235 4.99219 8.91235 5.05219 8.96235L12.3122 16.0324C12.3722 16.0924 12.4122 16.1824 12.4122 16.2724V24.9223C12.4122 24.9823 12.4422 25.0324 12.4722 25.0624C12.5022 25.0924 12.5522 25.1224 12.6022 25.1424C12.7022 25.1924 12.8422 25.2323 13.0022 25.2724C13.3322 25.3524 13.7822 25.4024 14.2922 25.4024C14.8022 25.4024 15.2422 25.3524 15.5822 25.2724C15.7422 25.2323 15.8822 25.1924 15.9822 25.1424C16.0322 25.1224 16.0822 25.0924 16.1122 25.0624C16.1422 25.0324 16.1822 24.9823 16.1822 24.9223V16.2724C16.1822 16.1824 16.2122 16.0924 16.2722 16.0324L23.5322 8.96235C23.5322 8.96235 23.5922 8.85235 23.5922 8.80235C23.5922 8.75235 23.5722 8.70235 23.5522 8.64235H23.5722Z" fill="url(#paint0_linear_5207_1727)"/>
<defs>
<linearGradient id="paint0_linear_5207_1727" x1="5.03219" y1="16.3224" x2="23.4622" y2="14.7324" gradientUnits="userSpaceOnUse">
<stop offset="0.3" stop-color="#FB6A2A"/>
<stop offset="0.54" stop-color="#FB3532"/>
<stop offset="0.89" stop-color="#FC6BDA"/>
</linearGradient>
</defs>
</svg>
