<svg width="17" height="17" viewBox="0 0 17 17" fill="none" xmlns="http://www.w3.org/2000/svg">
<path d="M1.57931 1.42776L1.06312 1.94394C0.801466 2.2056 0.801466 2.62982 1.06312 2.89147L14.1305 15.9588C14.3921 16.2205 14.8163 16.2205 15.078 15.9588L15.5942 15.4426C15.8558 15.181 15.8558 14.7567 15.5942 14.4951L2.52683 1.42776C2.26518 1.1661 1.84096 1.1661 1.57931 1.42776Z" fill="#ADADAD"/>
<path d="M14.1305 1.43482L1.06312 14.5022C0.801466 14.7638 0.801466 15.188 1.06312 15.4497L1.57931 15.9659C1.84096 16.2275 2.26518 16.2275 2.52683 15.9659L15.5942 2.89853C15.8558 2.63688 15.8558 2.21266 15.5942 1.95101L15.078 1.43482C14.8163 1.17317 14.3921 1.17317 14.1305 1.43482Z" fill="#ADADAD"/>
</svg>
