<svg width="14" height="13" viewBox="0 0 14 13" fill="none" xmlns="http://www.w3.org/2000/svg">
<path d="M5.60504 12.8747H5.11424C4.63122 12.8591 4.2339 12.68 3.93007 12.306C3.85996 12.1891 3.79763 12.0801 3.72752 11.9632C3.59508 11.6126 3.62624 11.2465 3.62624 10.8881C3.62624 10.6934 3.62624 10.4986 3.62624 10.296C3.62624 10.1324 3.62624 9.96884 3.62624 9.80523C3.62624 9.19757 3.62624 8.58991 3.62624 7.97445C3.62624 7.81085 3.62624 7.64725 3.62624 7.48364C3.62624 6.87598 3.62624 6.26832 3.62624 5.65286V5.16205C3.62624 5.05299 3.62624 4.95171 3.62624 4.84264C3.64182 4.14149 4.09367 3.58836 4.77145 3.42476C4.9818 3.37801 5.19214 3.40138 5.40249 3.3858C5.56609 3.3858 5.72969 3.3858 5.89329 3.3858C6.50096 3.3858 7.10862 3.3858 7.72408 3.3858C7.88768 3.3858 8.05128 3.3858 8.21488 3.3858C8.82255 3.3858 9.43021 3.3858 10.0457 3.3858C10.2093 3.3858 10.3729 3.3858 10.5365 3.3858C10.8325 3.3858 11.1286 3.39359 11.4246 3.3858C11.6895 3.3858 11.9544 3.40138 12.2037 3.48708L12.5464 3.68964C12.9204 4.00126 13.0996 4.39858 13.1152 4.8738C13.1152 5.0374 13.1152 5.20101 13.1152 5.36461C13.1152 5.97227 13.1152 6.57994 13.1152 7.19539C13.1152 7.359 13.1152 7.5226 13.1152 7.6862C13.1152 8.29386 13.1152 8.90153 13.1152 9.51698C13.1152 9.68059 13.1152 9.84419 13.1152 10.0078C13.1152 10.4363 13.1152 10.8648 13.1152 11.2932C13.1152 11.5114 13.0918 11.7217 13.0217 11.9243C12.8581 12.3216 12.5776 12.602 12.1803 12.7657C11.9777 12.8358 11.7752 12.8591 11.5648 12.8591C11.1286 12.8591 10.7001 12.8591 10.2638 12.8591C10.1002 12.8591 9.9366 12.8591 9.773 12.8591C9.16533 12.8591 8.55767 12.8591 7.94221 12.8591C7.77861 12.8591 7.61501 12.8591 7.45141 12.8591C6.84374 12.8591 6.23608 12.8591 5.62062 12.8591L5.60504 12.8747ZM12.118 11.0673C12.118 10.9037 12.118 10.7401 12.118 10.5765C12.118 9.96884 12.118 9.36117 12.118 8.74572C12.118 8.58211 12.118 8.41851 12.118 8.25491C12.118 7.64725 12.118 7.03958 12.118 6.42413C12.118 6.26052 12.118 6.09692 12.118 5.93332C12.118 5.55158 12.1258 5.16984 12.118 4.7959C12.118 4.59334 11.9699 4.43753 11.7596 4.383C11.6038 4.34404 11.448 4.36742 11.2922 4.36742C10.6845 4.36742 10.0768 4.36742 9.46138 4.36742C9.29777 4.36742 9.13417 4.36742 8.97057 4.36742C8.36291 4.36742 7.75524 4.36742 7.13979 4.36742C6.97618 4.36742 6.81258 4.36742 6.64898 4.36742C6.11143 4.36742 5.56609 4.36742 5.02854 4.36742C4.79482 4.36742 4.59227 4.56997 4.59227 4.80369C4.59227 5.34124 4.59227 5.88658 4.59227 6.42413C4.59227 6.58773 4.59227 6.75133 4.59227 6.91493C4.59227 7.5226 4.59227 8.13026 4.59227 8.74572C4.59227 8.90932 4.59227 9.07292 4.59227 9.23652C4.59227 9.84419 4.59227 10.4519 4.59227 11.0673C4.59227 11.2231 4.5689 11.3789 4.60785 11.5347C4.66238 11.7451 4.8182 11.8853 5.02075 11.8931C5.40249 11.8931 5.78423 11.8931 6.15817 11.8931C6.32178 11.8931 6.48538 11.8931 6.64898 11.8931C7.25664 11.8931 7.86431 11.8931 8.47976 11.8931C8.64337 11.8931 8.80697 11.8931 8.97057 11.8931C9.57823 11.8931 10.1859 11.8931 10.8014 11.8931C10.965 11.8931 11.1286 11.8931 11.2922 11.8931C11.4168 11.8931 11.5415 11.8931 11.6661 11.8931C11.9154 11.8853 12.1102 11.6906 12.118 11.4413C12.118 11.3166 12.118 11.192 12.118 11.0673Z" fill="#ADADAD"/>
<path d="M1.77827 0.557891C1.94187 0.518938 2.11326 0.503357 2.28465 0.503357C2.73651 0.503357 3.18836 0.503357 3.64021 0.503357C3.81161 0.503357 3.983 0.503357 4.15439 0.503357C4.20114 0.503357 4.24788 0.503357 4.29462 0.503357C5.7203 0.503357 7.14597 0.511148 8.57165 0.503357C9.12478 0.503357 9.57663 0.666959 9.91942 1.10323C9.98174 1.2123 10.0363 1.32916 10.0986 1.43823C10.1999 1.72648 10.1843 2.03031 10.1843 2.32635C10.1843 2.3653 10.1921 2.41205 10.122 2.41205C9.83372 2.41205 9.53768 2.41205 9.24943 2.41205C9.24164 2.41205 9.22605 2.39647 9.21826 2.39647C9.21826 2.22507 9.24164 2.05368 9.20268 1.88229C9.17152 1.65636 9.00013 1.48497 8.75862 1.47718C8.41584 1.46939 8.07305 1.47718 7.73026 1.47718C7.55887 1.47718 7.38748 1.47718 7.21609 1.47718C6.61621 1.47718 6.01634 1.47718 5.40867 1.47718C5.23728 1.47718 5.06589 1.47718 4.8945 1.47718C4.29462 1.47718 3.69475 1.47718 3.08708 1.47718C2.91569 1.47718 2.7443 1.47718 2.56512 1.47718C2.42489 1.47718 2.28465 1.46939 2.14442 1.47718C1.87955 1.49276 1.68478 1.67973 1.67699 1.94461C1.67699 2.08484 1.67699 2.22507 1.67699 2.3653C1.67699 2.5367 1.67699 2.70809 1.67699 2.87948C1.67699 3.47936 1.67699 4.08702 1.67699 4.68689C1.67699 4.85829 1.67699 5.02968 1.67699 5.20107C1.67699 5.80095 1.67699 6.40082 1.67699 7.00069C1.67699 7.17209 1.67699 7.34348 1.67699 7.51487C1.67699 7.84987 1.6692 8.19265 1.67699 8.52765C1.67699 8.76915 1.84838 8.94834 2.0821 8.9795C2.25349 9.01845 2.42489 8.99508 2.59628 8.99508C2.65081 8.99508 2.65081 9.03403 2.65081 9.08078C2.65081 9.34566 2.65081 9.61054 2.65081 9.87541C2.65081 9.93774 2.63523 9.9689 2.56512 9.96111C2.25349 9.96111 1.94966 9.97669 1.65362 9.87541C1.54455 9.81309 1.42769 9.75856 1.31862 9.69623C1.007 9.44693 0.796656 9.13531 0.734331 8.73799C0.71875 8.62892 0.71875 8.52765 0.71875 8.41858C0.71875 7.69405 0.71875 6.96953 0.71875 6.2528C0.71875 6.08141 0.71875 5.91001 0.71875 5.73862C0.71875 5.68409 0.71875 5.63734 0.71875 5.58281C0.71875 4.39864 0.71875 3.22227 0.71875 2.0381C0.71875 1.8745 0.734331 1.7109 0.773284 1.55508C0.944677 1.05649 1.27967 0.729284 1.77827 0.557891Z" fill="#ADADAD"/>
</svg>
