<svg width="35" height="36" viewBox="0 0 35 36" fill="none" xmlns="http://www.w3.org/2000/svg">
<path d="M17.5838 35.3532C27.0831 35.3532 34.7838 27.6525 34.7838 18.1532C34.7838 8.65389 27.0831 0.953186 17.5838 0.953186C8.08449 0.953186 0.383789 8.65389 0.383789 18.1532C0.383789 27.6525 8.08449 35.3532 17.5838 35.3532Z" fill="url(#paint0_linear_5211_504)"/>
<path d="M25.6137 17.2632C24.4237 17.0332 23.5137 15.9732 23.5137 14.7132C23.5137 14.2732 23.6237 13.8632 23.8237 13.4932C23.9137 13.3332 23.9137 13.1332 23.7937 12.9932C23.5037 12.6432 23.1937 12.3232 22.8537 12.0332C22.7137 11.9132 22.5237 11.9132 22.3637 11.9932C21.3937 12.4832 20.1737 12.3232 19.3537 11.5132C18.9637 11.1232 18.7337 10.6532 18.6337 10.1532C18.2937 10.1132 17.9437 10.0732 17.5837 10.0732C17.2737 10.0732 16.9737 10.0932 16.6837 10.1232C16.4337 11.3032 15.3937 12.1832 14.1437 12.1832C13.7137 12.1832 13.3037 12.0732 12.9437 11.8932C12.7837 11.8132 12.5837 11.8132 12.4437 11.9232C12.0937 12.2132 11.7637 12.5332 11.4737 12.8732C11.3537 13.0032 11.3537 13.2032 11.4337 13.3632C11.9137 14.3332 11.7537 15.5432 10.9437 16.3532C10.5637 16.7332 10.0837 16.9732 9.59367 17.0632C9.54367 17.4132 9.51367 17.7732 9.51367 18.1432C9.51367 18.4432 9.53367 18.7332 9.56367 19.0232C10.7437 19.2732 11.6237 20.3132 11.6237 21.5632C11.6237 22.0032 11.5137 22.4132 11.3237 22.7732C11.2437 22.9332 11.2437 23.1332 11.3537 23.2732C11.6437 23.6232 11.9537 23.9432 12.2937 24.2432C12.4337 24.3632 12.6237 24.3632 12.7837 24.2832C13.7537 23.7932 14.9737 23.9532 15.7937 24.7632C16.1837 25.1532 16.4237 25.6332 16.5137 26.1432C16.8637 26.1932 17.2237 26.2232 17.5937 26.2232C17.8837 26.2232 18.1737 26.2032 18.4637 26.1732C18.7037 24.9832 19.7537 24.0832 21.0137 24.0832C21.4637 24.0832 21.8737 24.1932 22.2437 24.3932C22.4037 24.4832 22.6037 24.4832 22.7437 24.3632C23.0837 24.0832 23.4137 23.7732 23.7037 23.4332C23.8237 23.2932 23.8237 23.0932 23.7437 22.9332C23.2437 21.9532 23.4037 20.7332 24.2137 19.9132C24.6037 19.5232 25.0937 19.2832 25.6037 19.1932C25.6437 18.8532 25.6837 18.5032 25.6837 18.1432C25.6837 17.8432 25.6637 17.5432 25.6337 17.2532L25.6137 17.2632ZM17.5837 22.1232C15.3937 22.1232 13.6137 20.3432 13.6137 18.1532C13.6137 15.9632 15.3937 14.1832 17.5837 14.1832C19.7737 14.1832 21.5537 15.9632 21.5537 18.1532C21.5537 20.3432 19.7737 22.1232 17.5837 22.1232Z" fill="#F7F7F7"/>
<defs>
<linearGradient id="paint0_linear_5211_504" x1="17.5838" y1="0.953186" x2="17.5838" y2="35.3532" gradientUnits="userSpaceOnUse">
<stop stop-color="#105BD6"/>
<stop offset="1" stop-color="#4D8AE9"/>
</linearGradient>
</defs>
</svg>
