<svg width="21" height="22" viewBox="0 0 21 22" fill="none" xmlns="http://www.w3.org/2000/svg">
<path d="M18.4775 2.72345H18.1897V3.6977C18.1897 4.63873 17.4147 5.43584 16.4515 5.43584C15.4884 5.43584 14.7134 4.66087 14.7134 3.6977V2.72345H6.94156V3.6977C6.94156 4.63873 6.16659 5.43584 5.20342 5.43584C4.24024 5.43584 3.48741 4.63873 3.48741 3.66448V2.69023H3.19957C1.93748 2.69023 0.918945 3.71984 0.918945 4.97086V17.5032C0.918945 19.5403 2.56852 21.1899 4.60558 21.1899H17.0937C19.1307 21.1899 20.7803 19.5403 20.7803 17.5032V5.00407C20.7803 3.74198 19.7507 2.72345 18.4997 2.72345H18.4775ZM6.2773 17.4147C6.2773 17.9239 5.86768 18.3335 5.35841 18.3335H5.11485C4.60558 18.3335 4.19596 17.9239 4.19596 17.4147V17.1711C4.19596 16.6618 4.60558 16.2522 5.11485 16.2522H5.35841C5.86768 16.2522 6.2773 16.6618 6.2773 17.1711V17.4147ZM6.2773 13.6505C6.2773 14.1598 5.86768 14.5694 5.35841 14.5694H5.11485C4.60558 14.5694 4.19596 14.1598 4.19596 13.6505V13.4069C4.19596 12.8977 4.60558 12.4881 5.11485 12.4881H5.35841C5.86768 12.4881 6.2773 12.8977 6.2773 13.4069V13.6505ZM10.1079 17.4147C10.1079 17.9239 9.69824 18.3335 9.18897 18.3335H8.94541C8.43615 18.3335 8.02652 17.9239 8.02652 17.4147V17.1711C8.02652 16.6618 8.43615 16.2522 8.94541 16.2522H9.18897C9.69824 16.2522 10.1079 16.6618 10.1079 17.1711V17.4147ZM10.1079 13.6505C10.1079 14.1598 9.69824 14.5694 9.18897 14.5694H8.94541C8.43615 14.5694 8.02652 14.1598 8.02652 13.6505V13.4069C8.02652 12.8977 8.43615 12.4881 8.94541 12.4881H9.18897C9.69824 12.4881 10.1079 12.8977 10.1079 13.4069V13.6505ZM10.1079 9.87531C10.1079 10.3846 9.69824 10.7942 9.18897 10.7942H8.94541C8.43615 10.7942 8.02652 10.3846 8.02652 9.87531V9.63175C8.02652 9.12248 8.43615 8.71285 8.94541 8.71285H9.18897C9.69824 8.71285 10.1079 9.12248 10.1079 9.63175V9.87531ZM13.9274 17.4147C13.9274 17.9239 13.5177 18.3335 13.0085 18.3335H12.7649C12.2556 18.3335 11.846 17.9239 11.846 17.4147V17.1711C11.846 16.6618 12.2556 16.2522 12.7649 16.2522H13.0085C13.5177 16.2522 13.9274 16.6618 13.9274 17.1711V17.4147ZM13.9274 13.6505C13.9274 14.1598 13.5177 14.5694 13.0085 14.5694H12.7649C12.2556 14.5694 11.846 14.1598 11.846 13.6505V13.4069C11.846 12.8977 12.2556 12.4881 12.7649 12.4881H13.0085C13.5177 12.4881 13.9274 12.8977 13.9274 13.4069V13.6505ZM13.9274 9.87531C13.9274 10.3846 13.5177 10.7942 13.0085 10.7942H12.7649C12.2556 10.7942 11.846 10.3846 11.846 9.87531V9.63175C11.846 9.12248 12.2556 8.71285 12.7649 8.71285H13.0085C13.5177 8.71285 13.9274 9.12248 13.9274 9.63175V9.87531ZM17.7579 13.6505C17.7579 14.1598 17.3483 14.5694 16.839 14.5694H16.5955C16.0862 14.5694 15.6766 14.1598 15.6766 13.6505V13.4069C15.6766 12.8977 16.0862 12.4881 16.5955 12.4881H16.839C17.3483 12.4881 17.7579 12.8977 17.7579 13.4069V13.6505ZM17.7579 9.87531C17.7579 10.3846 17.3483 10.7942 16.839 10.7942H16.5955C16.0862 10.7942 15.6766 10.3846 15.6766 9.87531V9.63175C15.6766 9.12248 16.0862 8.71285 16.5955 8.71285H16.839C17.3483 8.71285 17.7579 9.12248 17.7579 9.63175V9.87531Z" fill="white"/>
<path d="M5.22674 4.27334C5.56994 4.27334 5.82457 4.01871 5.82457 3.67551V0.619916C5.82457 0.309928 5.56994 0.04422 5.22674 0.04422C4.88354 0.04422 4.62891 0.298857 4.62891 0.619916V3.67551C4.62891 3.9855 4.88354 4.27334 5.22674 4.27334Z" fill="white"/>
<path d="M16.4738 4.27334C16.817 4.27334 17.0716 4.01871 17.0716 3.67551V0.619916C17.0716 0.309928 16.817 0.04422 16.4738 0.04422C16.1306 0.04422 15.876 0.298857 15.876 0.619916V3.67551C15.876 3.9855 16.1306 4.27334 16.4738 4.27334Z" fill="white"/>
</svg>
