<svg width="22" height="24" viewBox="0 0 22 24" fill="none" xmlns="http://www.w3.org/2000/svg">
<path d="M19.2165 3.71533H18.9039V4.77316C18.9039 5.79494 18.0625 6.66044 17.0166 6.66044C15.9708 6.66044 15.1294 5.81898 15.1294 4.77316V3.71533H6.69072V4.77316C6.69072 5.79494 5.84926 6.66044 4.80344 6.66044C3.75763 6.66044 2.94021 5.79494 2.94021 4.7371V3.67926H2.62767C1.25729 3.67926 0.151367 4.79721 0.151367 6.15556V19.7632C0.151367 21.975 1.94248 23.7661 4.15431 23.7661H17.7138C19.9257 23.7661 21.7168 21.975 21.7168 19.7632V6.19163C21.7168 4.82125 20.5989 3.71533 19.2405 3.71533H19.2165ZM5.96946 19.667C5.96946 20.22 5.52469 20.6647 4.97173 20.6647H4.70727C4.15431 20.6647 3.70954 20.22 3.70954 19.667V19.4026C3.70954 18.8496 4.15431 18.4048 4.70727 18.4048H4.97173C5.52469 18.4048 5.96946 18.8496 5.96946 19.4026V19.667ZM5.96946 15.5799C5.96946 16.1329 5.52469 16.5777 4.97173 16.5777H4.70727C4.15431 16.5777 3.70954 16.1329 3.70954 15.5799V15.3155C3.70954 14.7625 4.15431 14.3177 4.70727 14.3177H4.97173C5.52469 14.3177 5.96946 14.7625 5.96946 15.3155V15.5799ZM10.1287 19.667C10.1287 20.22 9.68391 20.6647 9.13095 20.6647H8.86649C8.31353 20.6647 7.86876 20.22 7.86876 19.667V19.4026C7.86876 18.8496 8.31353 18.4048 8.86649 18.4048H9.13095C9.68391 18.4048 10.1287 18.8496 10.1287 19.4026V19.667ZM10.1287 15.5799C10.1287 16.1329 9.68391 16.5777 9.13095 16.5777H8.86649C8.31353 16.5777 7.86876 16.1329 7.86876 15.5799V15.3155C7.86876 14.7625 8.31353 14.3177 8.86649 14.3177H9.13095C9.68391 14.3177 10.1287 14.7625 10.1287 15.3155V15.5799ZM10.1287 11.4808C10.1287 12.0338 9.68391 12.4785 9.13095 12.4785H8.86649C8.31353 12.4785 7.86876 12.0338 7.86876 11.4808V11.2163C7.86876 10.6634 8.31353 10.2186 8.86649 10.2186H9.13095C9.68391 10.2186 10.1287 10.6634 10.1287 11.2163V11.4808ZM14.2759 19.667C14.2759 20.22 13.8311 20.6647 13.2781 20.6647H13.0137C12.4607 20.6647 12.016 20.22 12.016 19.667V19.4026C12.016 18.8496 12.4607 18.4048 13.0137 18.4048H13.2781C13.8311 18.4048 14.2759 18.8496 14.2759 19.4026V19.667ZM14.2759 15.5799C14.2759 16.1329 13.8311 16.5777 13.2781 16.5777H13.0137C12.4607 16.5777 12.016 16.1329 12.016 15.5799V15.3155C12.016 14.7625 12.4607 14.3177 13.0137 14.3177H13.2781C13.8311 14.3177 14.2759 14.7625 14.2759 15.3155V15.5799ZM14.2759 11.4808C14.2759 12.0338 13.8311 12.4785 13.2781 12.4785H13.0137C12.4607 12.4785 12.016 12.0338 12.016 11.4808V11.2163C12.016 10.6634 12.4607 10.2186 13.0137 10.2186H13.2781C13.8311 10.2186 14.2759 10.6634 14.2759 11.2163V11.4808ZM18.4351 15.5799C18.4351 16.1329 17.9903 16.5777 17.4374 16.5777H17.1729C16.6199 16.5777 16.1752 16.1329 16.1752 15.5799V15.3155C16.1752 14.7625 16.6199 14.3177 17.1729 14.3177H17.4374C17.9903 14.3177 18.4351 14.7625 18.4351 15.3155V15.5799ZM18.4351 11.4808C18.4351 12.0338 17.9903 12.4785 17.4374 12.4785H17.1729C16.6199 12.4785 16.1752 12.0338 16.1752 11.4808V11.2163C16.1752 10.6634 16.6199 10.2186 17.1729 10.2186H17.4374C17.9903 10.2186 18.4351 10.6634 18.4351 11.2163V11.4808Z" fill="#136BFB"/>
<path d="M4.82735 5.39821C5.2 5.39821 5.47648 5.12174 5.47648 4.74909V1.43133C5.47648 1.09475 5.2 0.806244 4.82735 0.806244C4.4547 0.806244 4.17822 1.08273 4.17822 1.43133V4.74909C4.17822 5.08568 4.4547 5.39821 4.82735 5.39821Z" fill="#136BFB"/>
<path d="M17.0407 5.39821C17.4134 5.39821 17.6899 5.12174 17.6899 4.74909V1.43133C17.6899 1.09475 17.4134 0.806244 17.0407 0.806244C16.6681 0.806244 16.3916 1.08273 16.3916 1.43133V4.74909C16.3916 5.08568 16.6681 5.39821 17.0407 5.39821Z" fill="#136BFB"/>
</svg>
