<svg width="25" height="16" viewBox="0 0 25 16" fill="none" xmlns="http://www.w3.org/2000/svg">
<path d="M1.82956 0.274109H22.2803C22.5029 0.274109 22.7255 0.318631 22.9184 0.392836L12.6634 9.10442C12.2924 9.41608 11.8323 9.41608 11.4613 9.10442L1.19141 0.392836C1.38434 0.318631 1.60695 0.274109 1.82956 0.274109Z" fill="#136BFB"/>
<path d="M0.078125 13.7051V2.02534C0.078125 1.93629 0.0781251 1.84725 0.0929659 1.77304L7.33531 7.90232L0.211693 14.4026C0.122648 14.1948 0.078125 13.9574 0.078125 13.7051Z" fill="#136BFB"/>
<path d="M22.28 15.4563H1.82926C1.82926 15.4563 1.72538 15.4563 1.66602 15.4563L8.70058 9.04502L10.3331 10.4252C11.3274 11.2712 12.8115 11.2712 13.8058 10.4252L15.4532 9.03018L22.4581 15.4414C22.4581 15.4414 22.3393 15.4414 22.28 15.4414V15.4563Z" fill="#136BFB"/>
<path d="M24.0314 13.7051C24.0314 13.9574 23.9869 14.18 23.8978 14.4026L16.7891 7.90232L24.0166 1.77304C24.0166 1.86209 24.0314 1.93629 24.0314 2.02534V13.7051Z" fill="#136BFB"/>
</svg>
