<svg width="23" height="15" viewBox="0 0 23 15" fill="none" xmlns="http://www.w3.org/2000/svg">
<path d="M2.43343 0.923069H21.2682C21.4732 0.923069 21.6782 0.964073 21.8559 1.03241L12.4112 9.05562C12.0695 9.34265 11.6458 9.34265 11.3041 9.05562L1.8457 1.03241C2.02339 0.964073 2.22841 0.923069 2.43343 0.923069Z" fill="white"/>
<path d="M0.819336 13.2927V2.53587C0.819336 2.45387 0.819336 2.37186 0.833004 2.30352L7.50306 7.94846L0.942349 13.9351C0.86034 13.7438 0.819336 13.5251 0.819336 13.2927Z" fill="white"/>
<path d="M21.2683 14.9056H2.43355C2.43355 14.9056 2.33788 14.9056 2.2832 14.9056L8.76191 9.00091L10.2654 10.272C11.1812 11.0511 12.548 11.0511 13.4638 10.272L14.9809 8.98724L21.4323 14.8919C21.4323 14.8919 21.3229 14.8919 21.2683 14.8919V14.9056Z" fill="white"/>
<path d="M22.881 13.2927C22.881 13.5251 22.84 13.7301 22.758 13.9351L16.2109 7.94846L22.8673 2.30352C22.8673 2.38553 22.881 2.45387 22.881 2.53587V13.2927Z" fill="white"/>
</svg>
