<svg width="24" height="24" viewBox="0 0 24 24" fill="none" xmlns="http://www.w3.org/2000/svg">
<path d="M21.9577 15.9516H17.5718C16.7541 15.9516 16.0404 16.472 15.7728 17.2451L15.6985 17.4532C15.6093 17.7209 15.4309 17.9141 15.1781 18.0331C14.9254 18.1371 14.6578 18.1371 14.405 18.0331C12.1451 17.0072 8.13088 14.7027 6.56979 10.748C6.42111 10.3763 6.52518 9.94512 6.80767 9.6775C7.28343 9.24634 7.8038 8.77057 8.20522 8.42862C8.74045 7.96772 8.96347 7.25408 8.79992 6.57017L7.61052 1.58953C7.40237 0.742078 6.64412 0.132507 5.76694 0.132507H2.12438C1.44047 0.132507 0.801163 0.504194 0.474077 1.0989L0.325401 1.36651C0.176725 1.61926 0.102387 1.88688 0.0875194 2.15449C-0.16523 6.0052 1.55941 12.0563 5.98995 16.9031C8.84453 20.0253 13.9292 23.7868 21.8983 23.9652C21.9131 23.9652 21.928 23.9652 21.9429 23.9652C22.4484 23.9652 22.9241 23.772 23.281 23.4151C23.6526 23.0583 23.8459 22.5826 23.8459 22.0622V17.8249C23.8459 16.7842 22.9985 15.9368 21.9577 15.9368V15.9516Z" fill="#136BFB"/>
</svg>
