<svg width="23" height="23" viewBox="0 0 23 23" fill="none" xmlns="http://www.w3.org/2000/svg">
<path d="M21.0626 15.4314H17.0233C16.2702 15.4314 15.6129 15.9107 15.3664 16.6227L15.298 16.8144C15.2158 17.0608 15.0515 17.2388 14.8187 17.3484C14.586 17.4442 14.3395 17.4442 14.1067 17.3484C12.0254 16.4036 8.32837 14.2812 6.89063 10.6389C6.7537 10.2966 6.84955 9.89953 7.10971 9.65306C7.54788 9.25597 8.02713 8.8178 8.39683 8.50287C8.88977 8.07839 9.09516 7.42114 8.94454 6.79127L7.84912 2.2042C7.65742 1.42371 6.95909 0.862305 6.15122 0.862305H2.79649C2.16662 0.862305 1.57783 1.20462 1.27659 1.75233L1.13966 1.9988C1.00274 2.23158 0.934273 2.47805 0.92058 2.72452C0.687803 6.27094 2.27616 11.8439 6.35661 16.3077C8.98562 19.1832 13.6685 22.6475 21.0079 22.8118C21.0216 22.8118 21.0353 22.8118 21.0489 22.8118C21.5145 22.8118 21.9527 22.6338 22.2813 22.3052C22.6236 21.9766 22.8016 21.5384 22.8016 21.0591V17.1567C22.8016 16.1982 22.0211 15.4177 21.0626 15.4177V15.4314Z" fill="white"/>
</svg>
