<svg width="22" height="18" viewBox="0 0 22 18" fill="none" xmlns="http://www.w3.org/2000/svg">
<path d="M20.2864 0.230064C20.8482 0.294533 21.235 0.847122 20.9955 1.79573L17.901 16.3472C17.7629 16.9919 17.4682 17.3235 17.0537 17.3695C17.4866 17.3419 17.7905 17.0103 17.9379 16.3472L21.0323 1.79573C21.2718 0.828703 20.8574 0.266904 20.2864 0.230064Z" fill="white"/>
<path d="M11.535 13.6856C11.535 13.6856 11.5258 13.6948 11.5166 13.704L16.1952 17.1577C16.5175 17.3327 16.8122 17.4156 17.0609 17.388C16.8215 17.4064 16.5452 17.3327 16.232 17.1577L11.5258 13.6856H11.535Z" fill="white"/>
<path d="M1.58943 7.34009L19.7235 0.340633C19.917 0.248535 20.1104 0.220905 20.2946 0.230115C20.1104 0.211696 19.8985 0.239325 19.6867 0.340633L1.55259 7.34009C0.309263 7.83742 0.327683 8.52816 1.33155 8.83208L5.99172 10.2872H6.00093L1.36839 8.83208C0.364522 8.53737 0.346102 7.84663 1.58943 7.34009Z" fill="white"/>
<path d="M17.9095 16.3565L21.004 1.80495C21.2342 0.856342 20.8474 0.303753 20.2948 0.239284C20.1198 0.230074 19.9264 0.257704 19.7238 0.349802L1.5897 7.34926C0.346372 7.84659 0.364792 8.53732 1.36866 8.84125L6.0012 10.2964L16.7675 3.50877C17.274 3.19563 17.7437 3.37062 17.3661 3.71138L8.61678 11.5674L11.5271 13.7132C11.5271 13.7132 11.5363 13.704 11.5455 13.6948L16.2517 17.1669C16.5649 17.3327 16.8411 17.4064 17.0806 17.3972C17.495 17.3511 17.7898 17.0196 17.9279 16.3749L17.9095 16.3565Z" fill="white"/>
</svg>
